<svg xmlns="http://www.w3.org/2000/svg" xmlns:xlink="http://www.w3.org/1999/xlink" width="240" zoomAndPan="magnify" viewBox="0 0 180 89.999999" height="120" preserveAspectRatio="xMidYMid meet" version="1.0"><defs><g/><clipPath id="47287173c8"><path d="M 140 13 L 166 13 L 166 40 L 140 40 Z M 140 13 " clip-rule="nonzero"/></clipPath><clipPath id="6774810dab"><path d="M 134.714844 17.402344 L 152.945312 0.550781 L 177.910156 27.558594 L 159.679688 44.40625 Z M 134.714844 17.402344 " clip-rule="nonzero"/></clipPath><clipPath id="ddb4fef40c"><path d="M 134.714844 17.402344 L 152.945312 0.550781 L 177.910156 27.558594 L 159.679688 44.40625 Z M 134.714844 17.402344 " clip-rule="nonzero"/></clipPath><clipPath id="c4bf37cec6"><path d="M 0.878906 0.28125 L 152 0.28125 L 152 79.71875 L 0.878906 79.71875 Z M 0.878906 0.28125 " clip-rule="nonzero"/></clipPath><clipPath id="cd97cef3b2"><rect x="0" width="152" y="0" height="80"/></clipPath><clipPath id="7ea9a54d3f"><rect x="0" width="177" y="0" height="80"/></clipPath></defs><g transform="matrix(1, 0, 0, 1, 2, 5)"><g clip-path="url(#7ea9a54d3f)"><g clip-path="url(#47287173c8)"><g clip-path="url(#6774810dab)"><g clip-path="url(#ddb4fef40c)"><path fill="#18cb96" d="M 165.617188 14.386719 L 143.519531 13.40625 C 139.253906 13.214844 138.53125 21.527344 143.589844 21.667969 L 157.339844 22.039062 L 156.289062 35.875 C 155.96875 40.085938 164.183594 40.53125 164.417969 36.25 Z M 165.617188 14.386719 " fill-opacity="1" fill-rule="nonzero"/></g></g></g><g clip-path="url(#c4bf37cec6)"><g transform="matrix(1, 0, 0, 1, 0, -0.000000000000008882)"><g clip-path="url(#cd97cef3b2)"><g fill="#373643" fill-opacity="1"><g transform="translate(1.769883, 62.721152)"><g><path d="M 7.703125 0 C 6.296875 0 5.285156 -0.304688 4.671875 -0.921875 C 4.054688 -1.535156 3.75 -2.410156 3.75 -3.546875 L 3.75 -38.546875 C 3.75 -39.691406 4.15625 -40.535156 4.96875 -41.078125 C 5.78125 -41.628906 6.664062 -41.90625 7.625 -41.90625 C 8.550781 -41.90625 9.421875 -41.628906 10.234375 -41.078125 C 11.046875 -40.535156 11.453125 -39.691406 11.453125 -38.546875 L 11.453125 -6.578125 L 33.015625 -6.578125 C 34.296875 -6.578125 35.273438 -6.222656 35.953125 -5.515625 C 36.628906 -4.816406 36.96875 -4.078125 36.96875 -3.296875 C 36.96875 -2.460938 36.628906 -1.703125 35.953125 -1.015625 C 35.273438 -0.335938 34.296875 0 33.015625 0 Z M 7.703125 0 "/></g></g></g><g fill="#373643" fill-opacity="1"><g transform="translate(37.153131, 62.721152)"><g><path d="M 9.875 -38.421875 C 9.875 -37.316406 9.46875 -36.488281 8.65625 -35.9375 C 7.84375 -35.394531 6.972656 -35.125 6.046875 -35.125 C 5.085938 -35.125 4.210938 -35.394531 3.421875 -35.9375 C 2.628906 -36.488281 2.234375 -37.316406 2.234375 -38.421875 L 2.234375 -39.265625 C 2.234375 -40.410156 2.628906 -41.242188 3.421875 -41.765625 C 4.210938 -42.296875 5.085938 -42.5625 6.046875 -42.5625 C 6.972656 -42.5625 7.84375 -42.296875 8.65625 -41.765625 C 9.46875 -41.242188 9.875 -40.410156 9.875 -39.265625 Z M 2.296875 -30.265625 C 2.296875 -31.316406 2.703125 -32.113281 3.515625 -32.65625 C 4.328125 -33.207031 5.171875 -33.484375 6.046875 -33.484375 C 6.972656 -33.484375 7.828125 -33.207031 8.609375 -32.65625 C 9.398438 -32.113281 9.796875 -31.335938 9.796875 -30.328125 L 9.796875 -3.21875 C 9.796875 -2.125 9.398438 -1.3125 8.609375 -0.78125 C 7.828125 -0.257812 6.972656 0 6.046875 0 C 5.171875 0 4.328125 -0.257812 3.515625 -0.78125 C 2.703125 -1.3125 2.296875 -2.125 2.296875 -3.21875 Z M 2.296875 -30.265625 "/></g></g></g><g fill="#373643" fill-opacity="1"><g transform="translate(47.938706, 62.721152)"><g><path d="M 22.171875 -34.140625 C 25.234375 -34.140625 27.835938 -33.46875 29.984375 -32.125 C 32.140625 -30.789062 33.785156 -28.941406 34.921875 -26.578125 C 36.066406 -24.210938 36.640625 -21.445312 36.640625 -18.28125 L 36.640625 -3.421875 C 36.640625 -2.410156 36.3125 -1.585938 35.65625 -0.953125 C 35 -0.316406 34.078125 0 32.890625 0 C 31.796875 0 30.894531 -0.316406 30.1875 -0.953125 C 29.488281 -1.585938 29.140625 -2.410156 29.140625 -3.421875 L 29.140625 -18.421875 C 29.140625 -21.140625 28.492188 -23.34375 27.203125 -25.03125 C 25.910156 -26.71875 23.859375 -27.5625 21.046875 -27.5625 C 20.210938 -27.5625 19.210938 -27.332031 18.046875 -26.875 C 16.890625 -26.414062 15.75 -25.722656 14.625 -24.796875 C 13.507812 -23.878906 12.585938 -22.71875 11.859375 -21.3125 C 11.140625 -19.90625 10.78125 -18.238281 10.78125 -16.3125 L 10.78125 -3.359375 C 10.78125 -1.117188 9.578125 0 7.171875 0 C 6.023438 0 5.09375 -0.296875 4.375 -0.890625 C 3.65625 -1.484375 3.296875 -2.304688 3.296875 -3.359375 L 3.296875 -30.125 C 3.296875 -31.21875 3.675781 -32.050781 4.4375 -32.625 C 5.207031 -33.195312 6.070312 -33.484375 7.03125 -33.484375 C 7.957031 -33.484375 8.8125 -33.195312 9.59375 -32.625 C 10.382812 -32.050781 10.78125 -31.265625 10.78125 -30.265625 L 10.78125 -29.796875 C 12.664062 -31.554688 14.617188 -32.71875 16.640625 -33.28125 C 18.660156 -33.851562 20.503906 -34.140625 22.171875 -34.140625 Z M 22.171875 -34.140625 "/></g></g></g><g fill="#373643" fill-opacity="1"><g transform="translate(87.860029, 62.721152)"><g><path d="M 29.46875 -5.65625 C 30.21875 -4.738281 30.515625 -3.847656 30.359375 -2.984375 C 30.203125 -2.128906 29.785156 -1.414062 29.109375 -0.84375 C 28.429688 -0.28125 27.648438 0 26.765625 0 C 25.585938 0 24.582031 -0.484375 23.75 -1.453125 L 12.625 -13.8125 L 10.71875 -12.109375 L 10.71875 -3.359375 C 10.71875 -2.253906 10.3125 -1.414062 9.5 -0.84375 C 8.6875 -0.28125 7.820312 0 6.90625 0 C 5.9375 0 5.078125 -0.28125 4.328125 -0.84375 C 3.585938 -1.414062 3.21875 -2.253906 3.21875 -3.359375 L 3.21875 -39.203125 C 3.21875 -40.347656 3.585938 -41.191406 4.328125 -41.734375 C 5.078125 -42.285156 5.957031 -42.5625 6.96875 -42.5625 C 7.976562 -42.5625 8.851562 -42.285156 9.59375 -41.734375 C 10.34375 -41.191406 10.71875 -40.347656 10.71875 -39.203125 L 10.71875 -21.046875 L 22.890625 -32.4375 C 23.722656 -33.132812 24.644531 -33.484375 25.65625 -33.484375 C 26.707031 -33.484375 27.601562 -33.140625 28.34375 -32.453125 C 29.09375 -31.773438 29.46875 -31 29.46875 -30.125 C 29.46875 -29.289062 29.007812 -28.4375 28.09375 -27.5625 L 17.765625 -18.421875 Z M 29.46875 -5.65625 "/></g></g></g><g fill="#373643" fill-opacity="1"><g transform="translate(117.78444, 62.721152)"><g><path d="M 11.375 -6.515625 L 28.015625 -6.578125 C 29.296875 -6.578125 30.253906 -6.222656 30.890625 -5.515625 C 31.523438 -4.816406 31.84375 -4.050781 31.84375 -3.21875 C 31.84375 -2.382812 31.523438 -1.640625 30.890625 -0.984375 C 30.253906 -0.328125 29.296875 0 28.015625 0 L 4.203125 0 C 2.929688 0 1.957031 -0.328125 1.28125 -0.984375 C 0.601562 -1.640625 0.265625 -2.382812 0.265625 -3.21875 C 0.265625 -4.144531 0.679688 -5.023438 1.515625 -5.859375 L 20.265625 -26.84375 L 4.9375 -26.765625 C 3.75 -26.765625 2.835938 -27.101562 2.203125 -27.78125 C 1.566406 -28.46875 1.25 -29.226562 1.25 -30.0625 C 1.25 -30.9375 1.566406 -31.722656 2.203125 -32.421875 C 2.835938 -33.128906 3.75 -33.484375 4.9375 -33.484375 L 27.5625 -33.484375 C 28.75 -33.484375 29.703125 -33.117188 30.421875 -32.390625 C 31.148438 -31.671875 31.515625 -30.875 31.515625 -30 C 31.515625 -29.207031 31.117188 -28.375 30.328125 -27.5 Z M 11.375 -6.515625 "/></g></g></g></g></g></g></g></g></svg>