<svg xmlns="http://www.w3.org/2000/svg" xmlns:xlink="http://www.w3.org/1999/xlink" width="1284" zoomAndPan="magnify" viewBox="0 0 962.88 587.249981" height="783" preserveAspectRatio="xMidYMid meet" version="1.0"><defs><g/><clipPath id="588a41775b"><path d="M 0.554688 0 L 962.207031 0 L 962.207031 586.5 L 0.554688 586.5 Z M 0.554688 0 " clip-rule="nonzero"/></clipPath><clipPath id="6dccc05afb"><path d="M 0.554688 0 L 962.207031 0 L 962.207031 586.5 L 0.554688 586.5 Z M 0.554688 0 " clip-rule="nonzero"/></clipPath><clipPath id="9fe43fa7af"><rect x="0" width="963" y="0" height="587"/></clipPath><clipPath id="2971c4178e"><path d="M 174 16 L 207 16 L 207 49 L 174 49 Z M 174 16 " clip-rule="nonzero"/></clipPath><clipPath id="0547dd4ff9"><path d="M 167.703125 21.464844 L 190.4375 0.453125 L 221.566406 34.132812 L 198.832031 55.148438 Z M 167.703125 21.464844 " clip-rule="nonzero"/></clipPath><clipPath id="57bff9729d"><path d="M 167.703125 21.464844 L 190.4375 0.453125 L 221.566406 34.132812 L 198.832031 55.148438 Z M 167.703125 21.464844 " clip-rule="nonzero"/></clipPath><clipPath id="a01f009184"><path d="M 0.796875 0.109375 L 189 0.109375 L 189 99.101562 L 0.796875 99.101562 Z M 0.796875 0.109375 " clip-rule="nonzero"/></clipPath><clipPath id="870b671524"><rect x="0" width="189" y="0" height="100"/></clipPath><clipPath id="937336459c"><rect x="0" width="220" y="0" height="100"/></clipPath></defs><g clip-path="url(#588a41775b)"><path fill="#ffffff" d="M 0.554688 0 L 962.324219 0 L 962.324219 586.5 L 0.554688 586.5 Z M 0.554688 0 " fill-opacity="1" fill-rule="nonzero"/><path fill="#ffffff" d="M 0.554688 0 L 962.324219 0 L 962.324219 586.5 L 0.554688 586.5 Z M 0.554688 0 " fill-opacity="1" fill-rule="nonzero"/><g transform="matrix(1, 0, 0, 1, 0.000000000000000111, 0)"><g clip-path="url(#9fe43fa7af)"><g clip-path="url(#6dccc05afb)"><path fill="#121212" d="M 0.554688 0 L 962.78125 0 L 962.78125 586.5 L 0.554688 586.5 Z M 0.554688 0 " fill-opacity="1" fill-rule="nonzero"/></g></g></g></g><g transform="matrix(1, 0, 0, 1, 372, 9)"><g clip-path="url(#937336459c)"><g clip-path="url(#2971c4178e)"><g clip-path="url(#0547dd4ff9)"><g clip-path="url(#57bff9729d)"><path fill="#18cb96" d="M 206.238281 17.707031 L 178.683594 16.484375 C 173.359375 16.246094 172.460938 26.613281 178.765625 26.785156 L 195.914062 27.25 L 194.605469 44.503906 C 194.207031 49.757812 204.453125 50.3125 204.742188 44.972656 Z M 206.238281 17.707031 " fill-opacity="1" fill-rule="nonzero"/></g></g></g><g clip-path="url(#a01f009184)"><g><g clip-path="url(#870b671524)"><g fill="#ffffff" fill-opacity="1"><g transform="translate(1.900214, 77.986216)"><g><path d="M 9.59375 0 C 7.84375 0 6.582031 -0.378906 5.8125 -1.140625 C 5.050781 -1.910156 4.671875 -3.007812 4.671875 -4.4375 L 4.671875 -48.078125 C 4.671875 -49.492188 5.175781 -50.539062 6.1875 -51.21875 C 7.207031 -51.90625 8.316406 -52.25 9.515625 -52.25 C 10.660156 -52.25 11.738281 -51.90625 12.75 -51.21875 C 13.769531 -50.539062 14.28125 -49.492188 14.28125 -48.078125 L 14.28125 -8.203125 L 41.1875 -8.203125 C 42.769531 -8.203125 43.984375 -7.765625 44.828125 -6.890625 C 45.679688 -6.015625 46.109375 -5.085938 46.109375 -4.109375 C 46.109375 -3.066406 45.679688 -2.117188 44.828125 -1.265625 C 43.984375 -0.421875 42.769531 0 41.1875 0 Z M 9.59375 0 "/></g></g></g><g fill="#ffffff" fill-opacity="1"><g transform="translate(46.02756, 77.986216)"><g><path d="M 12.3125 -47.90625 C 12.3125 -46.539062 11.800781 -45.515625 10.78125 -44.828125 C 9.769531 -44.148438 8.691406 -43.8125 7.546875 -43.8125 C 6.347656 -43.8125 5.253906 -44.148438 4.265625 -44.828125 C 3.285156 -45.515625 2.796875 -46.539062 2.796875 -47.90625 L 2.796875 -48.96875 C 2.796875 -50.394531 3.285156 -51.4375 4.265625 -52.09375 C 5.253906 -52.75 6.347656 -53.078125 7.546875 -53.078125 C 8.691406 -53.078125 9.769531 -52.75 10.78125 -52.09375 C 11.800781 -51.4375 12.3125 -50.394531 12.3125 -48.96875 Z M 2.875 -37.734375 C 2.875 -39.046875 3.378906 -40.039062 4.390625 -40.71875 C 5.398438 -41.40625 6.453125 -41.75 7.546875 -41.75 C 8.691406 -41.75 9.753906 -41.40625 10.734375 -40.71875 C 11.722656 -40.039062 12.21875 -39.070312 12.21875 -37.8125 L 12.21875 -4.015625 C 12.21875 -2.648438 11.722656 -1.640625 10.734375 -0.984375 C 9.753906 -0.328125 8.691406 0 7.546875 0 C 6.453125 0 5.398438 -0.328125 4.390625 -0.984375 C 3.378906 -1.640625 2.875 -2.648438 2.875 -4.015625 Z M 2.875 -37.734375 "/></g></g></g><g fill="#ffffff" fill-opacity="1"><g transform="translate(59.478525, 77.986216)"><g><path d="M 27.640625 -42.578125 C 31.472656 -42.578125 34.726562 -41.742188 37.40625 -40.078125 C 40.082031 -38.410156 42.128906 -36.097656 43.546875 -33.140625 C 44.972656 -30.191406 45.6875 -26.75 45.6875 -22.8125 L 45.6875 -4.265625 C 45.6875 -3.003906 45.273438 -1.976562 44.453125 -1.1875 C 43.640625 -0.394531 42.492188 0 41.015625 0 C 39.648438 0 38.53125 -0.394531 37.65625 -1.1875 C 36.78125 -1.976562 36.34375 -3.003906 36.34375 -4.265625 L 36.34375 -22.96875 C 36.34375 -26.363281 35.535156 -29.113281 33.921875 -31.21875 C 32.304688 -33.320312 29.75 -34.375 26.25 -34.375 C 25.207031 -34.375 23.960938 -34.085938 22.515625 -33.515625 C 21.066406 -32.941406 19.644531 -32.078125 18.25 -30.921875 C 16.851562 -29.773438 15.703125 -28.328125 14.796875 -26.578125 C 13.898438 -24.828125 13.453125 -22.75 13.453125 -20.34375 L 13.453125 -4.1875 C 13.453125 -1.394531 11.945312 0 8.9375 0 C 7.519531 0 6.359375 -0.367188 5.453125 -1.109375 C 4.554688 -1.847656 4.109375 -2.875 4.109375 -4.1875 L 4.109375 -37.578125 C 4.109375 -38.941406 4.582031 -39.976562 5.53125 -40.6875 C 6.488281 -41.394531 7.570312 -41.75 8.78125 -41.75 C 9.925781 -41.75 10.988281 -41.394531 11.96875 -40.6875 C 12.957031 -39.976562 13.453125 -38.992188 13.453125 -37.734375 L 13.453125 -37.15625 C 15.804688 -39.34375 18.238281 -40.789062 20.75 -41.5 C 23.269531 -42.21875 25.566406 -42.578125 27.640625 -42.578125 Z M 27.640625 -42.578125 "/></g></g></g><g fill="#ffffff" fill-opacity="1"><g transform="translate(109.265419, 77.986216)"><g><path d="M 36.75 -7.0625 C 37.675781 -5.90625 38.046875 -4.796875 37.859375 -3.734375 C 37.671875 -2.671875 37.148438 -1.78125 36.296875 -1.0625 C 35.453125 -0.351562 34.484375 0 33.390625 0 C 31.910156 0 30.648438 -0.601562 29.609375 -1.8125 L 15.75 -17.234375 L 13.375 -15.09375 L 13.375 -4.1875 C 13.375 -2.820312 12.867188 -1.78125 11.859375 -1.0625 C 10.847656 -0.351562 9.765625 0 8.609375 0 C 7.410156 0 6.34375 -0.351562 5.40625 -1.0625 C 4.476562 -1.78125 4.015625 -2.820312 4.015625 -4.1875 L 4.015625 -48.890625 C 4.015625 -50.316406 4.476562 -51.367188 5.40625 -52.046875 C 6.34375 -52.734375 7.4375 -53.078125 8.6875 -53.078125 C 9.945312 -53.078125 11.039062 -52.734375 11.96875 -52.046875 C 12.90625 -51.367188 13.375 -50.316406 13.375 -48.890625 L 13.375 -26.25 L 28.546875 -40.4375 C 29.585938 -41.3125 30.738281 -41.75 32 -41.75 C 33.3125 -41.75 34.429688 -41.328125 35.359375 -40.484375 C 36.285156 -39.640625 36.75 -38.671875 36.75 -37.578125 C 36.75 -36.535156 36.175781 -35.46875 35.03125 -34.375 L 22.15625 -22.96875 Z M 36.75 -7.0625 "/></g></g></g><g fill="#ffffff" fill-opacity="1"><g transform="translate(146.58491, 77.986216)"><g><path d="M 14.1875 -8.125 L 34.953125 -8.203125 C 36.535156 -8.203125 37.722656 -7.765625 38.515625 -6.890625 C 39.304688 -6.015625 39.703125 -5.054688 39.703125 -4.015625 C 39.703125 -2.984375 39.304688 -2.054688 38.515625 -1.234375 C 37.722656 -0.410156 36.535156 0 34.953125 0 L 5.25 0 C 3.664062 0 2.445312 -0.410156 1.59375 -1.234375 C 0.75 -2.054688 0.328125 -2.984375 0.328125 -4.015625 C 0.328125 -5.171875 0.847656 -6.265625 1.890625 -7.296875 L 25.265625 -33.46875 L 6.15625 -33.390625 C 4.675781 -33.390625 3.539062 -33.8125 2.75 -34.65625 C 1.957031 -35.507812 1.5625 -36.453125 1.5625 -37.484375 C 1.5625 -38.578125 1.957031 -39.5625 2.75 -40.4375 C 3.539062 -41.3125 4.675781 -41.75 6.15625 -41.75 L 34.375 -41.75 C 35.851562 -41.75 37.039062 -41.296875 37.9375 -40.390625 C 38.84375 -39.492188 39.296875 -38.5 39.296875 -37.40625 C 39.296875 -36.425781 38.800781 -35.390625 37.8125 -34.296875 Z M 14.1875 -8.125 "/></g></g></g></g></g></g></g></g></svg>